<?xml version="1.0" standalone="no"?>
<!DOCTYPE svg PUBLIC "-//W3C//DTD SVG 20010904//EN"
 "http://www.w3.org/TR/2001/REC-SVG-20010904/DTD/svg10.dtd">
<svg version="1.0" xmlns="http://www.w3.org/2000/svg"
 width="626.000000pt" height="626.000000pt" viewBox="0 0 626.000000 626.000000"
 preserveAspectRatio="xMidYMid meet">

<g transform="translate(0.000000,626.000000) scale(0.100000,-0.100000)"
fill="#000000" stroke="none">
<path d="M3077 5010 c-12 -144 -68 -269 -170 -385 -26 -29 -111 -105 -190
-168 -153 -123 -190 -160 -218 -222 -25 -54 -25 -150 0 -213 l20 -50 -50 -51
c-47 -48 -71 -94 -30 -57 38 34 117 56 204 56 100 0 190 -23 325 -84 287 -129
519 -176 627 -127 l40 18 -68 6 c-90 8 -294 78 -487 165 -202 91 -236 102
-350 110 l-95 7 -3 62 c-5 101 20 137 216 308 202 176 258 284 256 500 -1 66
-5 138 -11 160 -9 39 -9 39 -16 -35z"/>
<path d="M2968 5053 c7 -3 16 -2 19 1 4 3 -2 6 -13 5 -11 0 -14 -3 -6 -6z"/>
<path d="M2893 5043 c9 -2 23 -2 30 0 6 3 -1 5 -18 5 -16 0 -22 -2 -12 -5z"/>
<path d="M3595 5005 c12 -86 40 -133 137 -229 200 -198 225 -294 178 -704 -36
-319 -95 -555 -155 -620 -31 -34 -37 -37 -87 -35 -66 1 -180 41 -408 143 -289
129 -409 175 -525 200 -71 16 -229 13 -300 -5 -236 -60 -431 -267 -501 -530
-29 -110 -25 -296 9 -400 72 -219 170 -315 522 -514 136 -77 222 -144 263
-207 39 -58 43 -35 11 53 -31 82 -153 201 -326 316 -161 107 -227 176 -289
302 -95 192 -97 382 -8 564 42 86 132 180 211 224 72 38 192 67 282 67 154 0
282 -39 593 -179 87 -39 203 -87 258 -105 56 -19 103 -36 106 -39 2 -2 -3 -49
-12 -103 -22 -134 -15 -272 20 -379 14 -45 62 -144 110 -228 74 -131 108 -211
132 -312 l7 -30 7 25 c14 44 10 190 -6 252 -8 33 -35 114 -60 180 -68 184 -87
267 -88 388 -1 58 3 126 7 153 7 42 11 47 34 47 49 0 109 38 147 93 90 132
136 327 171 742 17 197 15 281 -11 394 -30 134 -85 203 -289 363 -44 35 -95
86 -114 113 l-34 50 8 -50z"/>
<path d="M2838 5033 c7 -3 16 -2 19 1 4 3 -2 6 -13 5 -11 0 -14 -3 -6 -6z"/>
<path d="M2798 5023 c7 -3 16 -2 19 1 4 3 -2 6 -13 5 -11 0 -14 -3 -6 -6z"/>
<path d="M2878 5018 c6 -6 18 -8 28 -6 14 3 12 5 -9 10 -19 3 -25 2 -19 -4z"/>
<path d="M2972 5000 c0 -14 2 -19 5 -12 2 6 2 18 0 25 -3 6 -5 1 -5 -13z"/>
<path d="M2888 4993 c7 -3 16 -2 19 1 4 3 -2 6 -13 5 -11 0 -14 -3 -6 -6z"/>
<path d="M2532 4936 c-24 -13 -24 -13 7 -13 18 0 27 4 20 7 -8 6 -7 9 2 13 8
3 10 6 4 6 -5 0 -21 -6 -33 -13z"/>
<path d="M2592 4933 c-13 -5 -7 -23 9 -23 6 0 8 4 5 9 -4 5 0 12 6 14 7 3 9 5
3 5 -5 0 -16 -2 -23 -5z"/>
<path d="M2886 4887 c3 -10 9 -15 12 -12 3 3 0 11 -7 18 -10 9 -11 8 -5 -6z"/>
<path d="M2395 4860 c-16 -11 -24 -20 -17 -20 8 0 10 -5 6 -12 -5 -9 -2 -8 9
1 10 8 15 16 12 19 -2 3 3 11 13 18 27 21 11 16 -23 -6z"/>
<path d="M2427 4833 c-3 -5 5 -8 18 -8 13 0 21 3 18 8 -2 4 -10 7 -18 7 -8 0
-16 -3 -18 -7z"/>
<path d="M2247 4749 c7 -7 15 -10 18 -7 3 3 -2 9 -12 12 -14 6 -15 5 -6 -5z"/>
<path d="M2803 4720 c-3 -38 22 -42 53 -7 l29 32 -31 -28 c-17 -15 -33 -24
-37 -20 -10 10 -8 25 2 18 5 -3 13 0 17 7 4 7 4 10 -1 6 -4 -4 -13 -4 -19 2
-8 6 -12 3 -13 -10z"/>
<path d="M4055 4710 c-3 -5 -1 -10 4 -10 6 0 11 5 11 10 0 6 -2 10 -4 10 -3 0
-8 -4 -11 -10z"/>
<path d="M2209 4708 c-6 -12 -4 -46 2 -42 4 2 5 12 2 21 -5 13 -2 15 11 10 10
-4 15 -3 11 3 -6 9 -23 14 -26 8z"/>
<path d="M4073 4663 c8 -15 17 -35 21 -43 3 -8 4 -2 1 13 -4 21 -2 27 6 21 8
-5 9 -3 4 6 -6 10 -4 12 9 7 11 -4 15 -3 11 4 -4 5 -12 8 -18 6 -7 -2 -20 0
-30 5 -17 9 -17 7 -4 -19z"/>
<path d="M2136 4667 c-16 -12 -16 -13 2 -13 10 0 19 6 19 13 0 7 -1 13 -2 13
-1 0 -9 -6 -19 -13z"/>
<path d="M2805 4660 c-4 -6 -11 -7 -17 -4 -7 4 -8 2 -4 -5 6 -9 11 -9 22 0 14
11 18 19 10 19 -3 0 -8 -5 -11 -10z"/>
<path d="M2739 4655 c-1 -3 -2 -8 -3 -12 -1 -5 -5 -15 -10 -23 -7 -12 -6 -13
4 -3 13 12 23 43 14 43 -2 0 -5 -2 -5 -5z"/>
<path d="M4159 4622 c18 -18 36 -32 39 -32 9 0 -32 42 -53 52 -11 6 -5 -3 14
-20z"/>
<path d="M2070 4601 c-7 -15 -7 -22 2 -27 7 -4 10 -4 6 1 -4 4 -3 16 3 26 5
11 7 19 5 19 -3 0 -10 -9 -16 -19z"/>
<path d="M2729 4593 l-24 -28 28 24 c25 23 32 31 24 31 -2 0 -14 -12 -28 -27z"/>
<path d="M4142 4570 c0 -14 2 -19 5 -12 2 6 2 18 0 25 -3 6 -5 1 -5 -13z"/>
<path d="M2679 4553 c-13 -16 -12 -17 4 -4 16 13 21 21 13 21 -2 0 -10 -8 -17
-17z"/>
<path d="M4210 4561 c0 -6 4 -13 10 -16 6 -3 7 1 4 9 -7 18 -14 21 -14 7z"/>
<path d="M2026 4551 c-4 -5 -3 -16 0 -25 3 -9 2 -16 -4 -16 -6 0 -12 5 -14 10
-2 6 -9 1 -16 -11 -11 -17 -11 -20 0 -13 7 5 20 9 28 9 10 0 15 10 15 28 1 29
-1 32 -9 18z"/>
<path d="M3557 4503 c-83 -114 -91 -193 -38 -393 18 -69 35 -160 38 -203 l6
-78 17 38 c52 119 67 243 45 383 -10 58 -20 150 -24 205 l-6 100 -38 -52z"/>
<path d="M4121 4514 c0 -11 3 -14 6 -6 3 7 2 16 -1 19 -3 4 -6 -2 -5 -13z"/>
<path d="M4221 4514 c0 -11 3 -14 6 -6 3 7 2 16 -1 19 -3 4 -6 -2 -5 -13z"/>
<path d="M4250 4516 c0 -2 8 -10 18 -17 15 -13 16 -12 3 4 -13 16 -21 21 -21
13z"/>
<path d="M4259 4475 c5 -11 17 -29 26 -40 l16 -20 -10 20 c-5 11 -17 29 -26
40 l-16 20 10 -20z"/>
<path d="M4303 4448 c14 -18 22 -40 20 -48 -4 -13 -3 -13 5 -1 7 10 4 24 -11
47 -12 19 -26 34 -30 34 -4 0 3 -15 16 -32z"/>
<path d="M4240 4464 c0 -6 7 -19 16 -30 14 -18 14 -18 3 6 -14 31 -19 36 -19
24z"/>
<path d="M1946 4443 c-6 -14 -5 -15 5 -6 7 7 10 15 7 18 -3 3 -9 -2 -12 -12z"/>
<path d="M4132 4440 c0 -14 2 -19 5 -12 2 6 2 18 0 25 -3 6 -5 1 -5 -13z"/>
<path d="M2481 4410 c-9 -5 -4 -7 13 -7 29 0 32 2 13 10 -8 3 -20 2 -26 -3z"/>
<path d="M2476 4375 c-11 -8 -15 -15 -9 -15 6 0 16 7 23 15 16 19 11 19 -14 0z"/>
<path d="M1887 4356 c-14 -21 -14 -26 -1 -42 15 -18 15 -18 6 0 -7 14 -6 26 5
43 8 13 13 23 10 23 -2 0 -12 -11 -20 -24z"/>
<path d="M2425 4360 c-4 -12 -5 -24 -2 -27 3 -2 8 5 12 17 4 12 5 24 2 27 -3
2 -8 -5 -12 -17z"/>
<path d="M4320 4363 c0 -6 8 -17 18 -24 16 -13 16 -13 2 6 -8 11 -16 22 -17
24 -2 2 -3 0 -3 -6z"/>
<path d="M4370 4338 c0 -9 5 -20 10 -23 13 -8 13 5 0 25 -8 13 -10 13 -10 -2z"/>
<path d="M1860 4315 c0 -5 10 -21 21 -35 13 -17 17 -18 10 -5 -17 33 -31 51
-31 40z"/>
<path d="M4351 4304 c0 -11 3 -14 6 -6 3 7 2 16 -1 19 -3 4 -6 -2 -5 -13z"/>
<path d="M4133 4220 c0 -25 2 -35 4 -22 2 12 2 32 0 45 -2 12 -4 2 -4 -23z"/>
<path d="M1811 4208 c-6 -17 -9 -34 -6 -36 3 -3 5 0 5 7 0 7 3 10 8 8 4 -3 7
8 8 24 1 37 -1 37 -15 -3z"/>
<path d="M2331 4224 c0 -11 3 -14 6 -6 3 7 2 16 -1 19 -3 4 -6 -2 -5 -13z"/>
<path d="M2385 4210 c-4 -17 -5 -66 -4 -110 3 -60 0 -83 -12 -97 -24 -28 -31
-43 -20 -43 6 0 11 5 11 12 0 6 7 20 16 30 13 14 17 41 18 128 1 60 0 110 -1
110 -1 0 -4 -14 -8 -30z"/>
<path d="M4430 4235 c0 -5 5 -17 10 -25 5 -8 10 -10 10 -5 0 6 -5 17 -10 25
-5 8 -10 11 -10 5z"/>
<path d="M4407 4201 c-4 -17 -3 -21 5 -13 5 5 8 16 6 23 -3 8 -7 3 -11 -10z"/>
<path d="M1785 4149 c-4 -6 -5 -12 -2 -15 2 -3 7 2 10 11 7 17 1 20 -8 4z"/>
<path d="M1806 4145 c-9 -26 -7 -32 5 -12 6 10 9 21 6 23 -2 3 -7 -2 -11 -11z"/>
<path d="M4123 4075 c0 -27 2 -38 4 -22 2 15 2 37 0 50 -2 12 -4 0 -4 -28z"/>
<path d="M4490 4075 c0 -5 5 -17 10 -25 5 -8 10 -10 10 -5 0 6 -5 17 -10 25
-5 8 -10 11 -10 5z"/>
<path d="M4113 3980 c0 -25 2 -35 4 -22 2 12 2 32 0 45 -2 12 -4 2 -4 -23z"/>
<path d="M2326 3995 c-9 -26 -7 -32 5 -12 6 10 9 21 6 23 -2 3 -7 -2 -11 -11z"/>
<path d="M2386 3982 l-19 -27 24 22 c12 12 21 24 18 27 -2 2 -13 -8 -23 -22z"/>
<path d="M4511 4005 c1 -19 18 -51 18 -35 0 8 -4 22 -9 30 -5 8 -9 11 -9 5z"/>
<path d="M1747 3929 c4 -13 8 -18 11 -10 2 7 -1 18 -6 23 -8 8 -9 4 -5 -13z"/>
<path d="M2350 3935 c-7 -9 -11 -17 -9 -20 3 -2 10 5 17 15 14 24 10 26 -8 5z"/>
<path d="M4537 3899 c4 -13 8 -18 11 -10 2 7 -1 18 -6 23 -8 8 -9 4 -5 -13z"/>
<path d="M1711 3894 c0 -11 3 -14 6 -6 3 7 2 16 -1 19 -3 4 -6 -2 -5 -13z"/>
<path d="M4102 3880 c0 -14 2 -19 5 -12 2 6 2 18 0 25 -3 6 -5 1 -5 -13z"/>
<path d="M4137 3871 c-4 -17 -3 -21 5 -13 5 5 8 16 6 23 -3 8 -7 3 -11 -10z"/>
<path d="M4486 3863 c-6 -14 -5 -15 5 -6 7 7 10 15 7 18 -3 3 -9 -2 -12 -12z"/>
<path d="M1722 3840 c0 -19 2 -27 5 -17 2 9 2 25 0 35 -3 9 -5 1 -5 -18z"/>
<path d="M1702 3835 c0 -16 2 -22 5 -12 2 9 2 23 0 30 -3 6 -5 -1 -5 -18z"/>
<path d="M4552 3840 c0 -14 2 -19 5 -12 2 6 2 18 0 25 -3 6 -5 1 -5 -13z"/>
<path d="M2290 3826 c0 -8 -6 -17 -12 -19 -8 -3 -6 -6 5 -6 11 -1 17 6 17 19
0 11 -2 20 -5 20 -3 0 -5 -6 -5 -14z"/>
<path d="M4091 3794 c0 -11 3 -14 6 -6 3 7 2 16 -1 19 -3 4 -6 -2 -5 -13z"/>
<path d="M1692 3760 c0 -19 2 -27 5 -17 2 9 2 25 0 35 -3 9 -5 1 -5 -18z"/>
<path d="M4563 3745 c0 -27 2 -38 4 -22 2 15 2 37 0 50 -2 12 -4 0 -4 -28z"/>
<path d="M1722 3760 c0 -14 2 -19 5 -12 2 6 2 18 0 25 -3 6 -5 1 -5 -13z"/>
<path d="M2145 3755 c-25 -12 -26 -14 -5 -9 28 7 60 23 45 23 -5 0 -23 -6 -40
-14z"/>
<path d="M4081 3744 c0 -11 3 -14 6 -6 3 7 2 16 -1 19 -3 4 -6 -2 -5 -13z"/>
<path d="M1731 3714 c0 -11 3 -14 6 -6 3 7 2 16 -1 19 -3 4 -6 -2 -5 -13z"/>
<path d="M4071 3694 c0 -11 3 -14 6 -6 3 7 2 16 -1 19 -3 4 -6 -2 -5 -13z"/>
<path d="M4051 3604 c0 -11 3 -14 6 -6 3 7 2 16 -1 19 -3 4 -6 -2 -5 -13z"/>
<path d="M1930 3599 c0 -5 5 -7 10 -4 6 3 10 8 10 11 0 2 -4 4 -10 4 -5 0 -10
-5 -10 -11z"/>
<path d="M1951 3564 c0 -11 3 -14 6 -6 3 7 2 16 -1 19 -3 4 -6 -2 -5 -13z"/>
<path d="M4041 3564 c0 -11 3 -14 6 -6 3 7 2 16 -1 19 -3 4 -6 -2 -5 -13z"/>
<path d="M1972 3545 c-6 -14 -10 -25 -8 -25 2 0 11 11 20 25 9 14 13 25 8 25
-5 0 -14 -11 -20 -25z"/>
<path d="M1731 3524 c0 -11 3 -14 6 -6 3 7 2 16 -1 19 -3 4 -6 -2 -5 -13z"/>
<path d="M1935 3529 c-4 -6 -5 -12 -2 -15 2 -3 7 2 10 11 7 17 1 20 -8 4z"/>
<path d="M4050 3519 c-6 -11 -10 -25 -8 -30 2 -5 8 4 15 21 13 34 9 40 -7 9z"/>
<path d="M4563 3500 c0 -25 2 -35 4 -22 2 12 2 32 0 45 -2 12 -4 2 -4 -23z"/>
<path d="M1940 3495 c-7 -9 -11 -17 -9 -20 3 -2 10 5 17 15 14 24 10 26 -8 5z"/>
<path d="M1692 3480 c0 -14 2 -19 5 -12 2 6 2 18 0 25 -3 6 -5 1 -5 -13z"/>
<path d="M4006 3473 c-6 -14 -5 -15 5 -6 7 7 10 15 7 18 -3 3 -9 -2 -12 -12z"/>
<path d="M1904 3433 c-2 -27 -1 -27 14 3 8 15 8 21 -1 21 -7 0 -13 -11 -13
-24z"/>
<path d="M1861 3440 c0 -8 3 -21 8 -28 6 -11 10 -10 15 4 3 9 4 19 1 22 -3 3
-5 -1 -6 -9 0 -8 -4 -6 -9 6 -6 13 -9 15 -9 5z"/>
<path d="M1702 3410 c0 -19 2 -27 5 -17 2 9 2 25 0 35 -3 9 -5 1 -5 -18z"/>
<path d="M4552 3405 c0 -16 2 -22 5 -12 2 9 2 23 0 30 -3 6 -5 -1 -5 -18z"/>
<path d="M3971 3393 c-10 -26 -10 -27 4 -9 8 11 15 23 15 28 0 15 -7 8 -19
-19z"/>
<path d="M1850 3396 c0 -8 4 -17 9 -20 5 -4 7 3 4 14 -6 23 -13 26 -13 6z"/>
<path d="M1886 3383 c-6 -14 -5 -15 5 -6 7 7 10 15 7 18 -3 3 -9 -2 -12 -12z"/>
<path d="M4492 3360 c0 -14 2 -19 5 -12 2 6 2 18 0 25 -3 6 -5 1 -5 -13z"/>
<path d="M1712 3350 c0 -14 2 -19 5 -12 2 6 2 18 0 25 -3 6 -5 1 -5 -13z"/>
<path d="M3969 3348 c-11 -20 -10 -21 3 -11 8 7 18 10 22 6 4 -4 4 0 0 10 -8
22 -11 22 -25 -5z"/>
<path d="M1866 3345 c-3 -9 -6 -22 -5 -28 0 -7 5 -1 10 12 5 13 8 26 5 28 -2
2 -6 -3 -10 -12z"/>
<path d="M4541 3344 c0 -11 3 -14 6 -6 3 7 2 16 -1 19 -3 4 -6 -2 -5 -13z"/>
<path d="M3919 3313 c-13 -16 -12 -17 4 -4 16 13 21 21 13 21 -2 0 -10 -8 -17
-17z"/>
<path d="M3980 3319 c0 -6 -7 -8 -16 -5 -8 3 -12 2 -9 -3 9 -15 44 -9 38 6 -6
16 -13 17 -13 2z"/>
<path d="M4511 3323 c-1 -6 -4 -20 -7 -30 -5 -17 -5 -17 6 0 6 10 9 23 6 30
-3 9 -5 9 -5 0z"/>
<path d="M2400 3286 c0 -2 13 -6 29 -8 17 -2 28 -1 25 4 -5 8 -54 12 -54 4z"/>
<path d="M1731 3264 c0 -11 3 -14 6 -6 3 7 2 16 -1 19 -3 4 -6 -2 -5 -13z"/>
<path d="M1841 3254 c0 -11 3 -14 6 -6 3 7 2 16 -1 19 -3 4 -6 -2 -5 -13z"/>
<path d="M2294 3238 c-28 -32 -28 -32 -1 -9 26 24 39 17 15 -7 -9 -9 -6 -9 14
0 23 11 24 14 9 26 -15 13 -15 13 2 8 9 -3 25 -9 35 -12 9 -3 6 2 -8 10 -33
20 -32 21 -66 -16z"/>
<path d="M2395 3260 c-3 -5 1 -10 10 -10 9 0 13 5 10 10 -3 6 -8 10 -10 10 -2
0 -7 -4 -10 -10z"/>
<path d="M2497 3259 c7 -7 15 -10 18 -7 3 3 -2 9 -12 12 -14 6 -15 5 -6 -5z"/>
<path d="M4516 3255 c-9 -26 -7 -32 5 -12 6 10 9 21 6 23 -2 3 -7 -2 -11 -11z"/>
<path d="M4491 3244 c0 -11 3 -14 6 -6 3 7 2 16 -1 19 -3 4 -6 -2 -5 -13z"/>
<path d="M2428 3233 c12 -2 30 -2 40 0 9 3 -1 5 -23 4 -22 0 -30 -2 -17 -4z"/>
<path d="M2758 3223 c7 -3 16 -2 19 1 4 3 -2 6 -13 5 -11 0 -14 -3 -6 -6z"/>
<path d="M3780 3220 c-8 -5 -12 -11 -10 -14 3 -2 14 2 24 10 22 15 10 19 -14
4z"/>
<path d="M1771 3204 c0 -11 3 -14 6 -6 3 7 2 16 -1 19 -3 4 -6 -2 -5 -13z"/>
<path d="M1805 3210 c3 -5 8 -10 11 -10 2 0 4 5 4 10 0 6 -5 10 -11 10 -5 0
-7 -4 -4 -10z"/>
<path d="M1831 3204 c0 -11 3 -14 6 -6 3 7 2 16 -1 19 -3 4 -6 -2 -5 -13z"/>
<path d="M2550 3214 c0 -5 7 -18 15 -28 8 -11 15 -16 15 -10 0 5 -7 18 -15 28
-8 11 -15 16 -15 10z"/>
<path d="M2863 3184 c26 -14 31 -23 28 -54 -2 -12 0 -13 7 -1 7 10 12 5 17
-20 5 -19 10 -29 12 -22 11 30 -50 114 -82 113 -5 -1 2 -8 18 -16z"/>
<path d="M3800 3190 c-9 -6 -10 -10 -3 -10 6 0 15 5 18 10 8 12 4 12 -15 0z"/>
<path d="M2656 3181 c-4 -6 8 -18 26 -27 21 -10 28 -11 18 -3 -8 8 -20 20 -27
27 -7 8 -13 10 -17 3z"/>
<path d="M1822 3155 c0 -16 2 -22 5 -12 2 9 2 23 0 30 -3 6 -5 -1 -5 -18z"/>
<path d="M3763 3115 c0 -38 2 -53 4 -32 2 20 2 52 0 70 -2 17 -4 1 -4 -38z"/>
<path d="M2830 3159 c0 -5 5 -7 10 -4 6 3 10 8 10 11 0 2 -4 4 -10 4 -5 0 -10
-5 -10 -11z"/>
<path d="M2860 3150 c-9 -6 -10 -10 -3 -10 6 0 15 5 18 10 8 12 4 12 -15 0z"/>
<path d="M3783 3105 c0 -33 2 -45 4 -27 2 18 2 45 0 60 -2 15 -4 0 -4 -33z"/>
<path d="M4451 3124 c0 -11 3 -14 6 -6 3 7 2 16 -1 19 -3 4 -6 -2 -5 -13z"/>
<path d="M1781 3115 c1 -19 18 -51 18 -35 0 8 -4 22 -9 30 -5 8 -9 11 -9 5z"/>
<path d="M2232 3080 c0 -19 2 -27 5 -17 2 9 2 25 0 35 -3 9 -5 1 -5 -18z"/>
<path d="M2932 3045 c0 -16 2 -22 5 -12 2 9 2 23 0 30 -3 6 -5 -1 -5 -18z"/>
<path d="M1807 3039 c4 -13 8 -18 11 -10 2 7 -1 18 -6 23 -8 8 -9 4 -5 -13z"/>
<path d="M3801 3044 c0 -11 3 -14 6 -6 3 7 2 16 -1 19 -3 4 -6 -2 -5 -13z"/>
<path d="M2892 3030 c0 -14 2 -19 5 -12 2 6 2 18 0 25 -3 6 -5 1 -5 -13z"/>
<path d="M2911 3034 c0 -11 3 -14 6 -6 3 7 2 16 -1 19 -3 4 -6 -2 -5 -13z"/>
<path d="M4436 3023 c-6 -14 -5 -15 5 -6 7 7 10 15 7 18 -3 3 -9 -2 -12 -12z"/>
<path d="M2240 3004 c0 -10 5 -26 10 -34 8 -11 9 -7 4 15 -8 37 -14 45 -14 19z"/>
<path d="M3771 3004 c0 -11 3 -14 6 -6 3 7 2 16 -1 19 -3 4 -6 -2 -5 -13z"/>
<path d="M4416 2983 c-6 -14 -5 -15 5 -6 7 7 10 15 7 18 -3 3 -9 -2 -12 -12z"/>
<path d="M2280 2965 c0 -8 2 -15 4 -15 2 0 6 7 10 15 3 8 1 15 -4 15 -6 0 -10
-7 -10 -15z"/>
<path d="M4371 2964 c0 -11 3 -14 6 -6 3 7 2 16 -1 19 -3 4 -6 -2 -5 -13z"/>
<path d="M2892 2929 c-12 -21 -21 -39 -18 -39 7 0 49 71 44 75 -2 2 -14 -14
-26 -36z"/>
<path d="M3811 2934 c0 -11 3 -14 6 -6 3 7 2 16 -1 19 -3 4 -6 -2 -5 -13z"/>
<path d="M4350 2929 c0 -5 5 -7 10 -4 6 3 10 8 10 11 0 2 -4 4 -10 4 -5 0 -10
-5 -10 -11z"/>
<path d="M4385 2929 c-4 -6 -5 -12 -2 -15 2 -3 7 2 10 11 7 17 1 20 -8 4z"/>
<path d="M3791 2910 c0 -8 4 -24 9 -35 5 -13 9 -14 9 -5 0 8 -4 24 -9 35 -5
13 -9 14 -9 5z"/>
<path d="M2300 2905 c0 -5 5 -17 10 -25 5 -8 10 -10 10 -5 0 6 -5 17 -10 25
-5 8 -10 11 -10 5z"/>
<path d="M4332 2898 c-7 -7 -12 -16 -12 -22 0 -5 6 -2 13 9 9 11 19 15 27 10
9 -5 11 -4 6 3 -9 15 -19 15 -34 0z"/>
<path d="M2803 2886 c-4 -5 -1 -6 5 -2 16 10 15 -6 0 -24 -7 -8 1 -4 17 10 17
14 31 26 33 26 2 1 -9 1 -23 0 -15 0 -29 -5 -32 -10z"/>
<path d="M2286 2877 c3 -10 9 -15 12 -12 3 3 0 11 -7 18 -10 9 -11 8 -5 -6z"/>
<path d="M2835 2860 c-10 -11 -14 -20 -9 -20 5 0 15 9 22 20 7 11 11 20 9 20
-2 0 -12 -9 -22 -20z"/>
<path d="M4320 2815 c-7 -9 -11 -17 -9 -20 3 -2 10 5 17 15 14 24 10 26 -8 5z"/>
<path d="M2373 2792 c-1 -22 0 -24 9 -8 6 10 6 22 2 26 -5 5 -10 -3 -11 -18z"/>
<path d="M2731 2811 c-7 -5 -9 -11 -5 -14 5 -3 15 1 22 9 14 16 5 18 -17 5z"/>
<path d="M4250 2800 c-8 -15 -8 -25 0 -38 11 -16 11 -16 6 1 -3 10 -1 27 4 38
6 10 8 19 6 19 -3 0 -10 -9 -16 -20z"/>
<path d="M2346 2793 c-4 -9 -3 -20 1 -24 4 -4 9 3 9 17 2 28 -1 31 -10 7z"/>
<path d="M2746 2784 c-15 -14 -27 -27 -25 -29 2 -2 17 8 33 21 15 14 27 27 25
29 -2 2 -17 -8 -33 -21z"/>
<path d="M4270 2781 c0 -6 4 -13 10 -16 6 -3 7 1 4 9 -7 18 -14 21 -14 7z"/>
<path d="M2374 2728 c10 -16 19 -28 20 -28 0 0 2 12 2 28 1 15 -1 21 -3 14 -4
-10 -8 -10 -21 0 -12 10 -12 7 2 -14z"/>
<path d="M4265 2740 c-4 -6 -11 -7 -17 -4 -7 4 -8 2 -4 -5 6 -9 11 -9 22 0 14
11 18 19 10 19 -3 0 -8 -5 -11 -10z"/>
<path d="M2467 2719 c4 -13 8 -18 11 -10 2 7 -1 18 -6 23 -8 8 -9 4 -5 -13z"/>
<path d="M2635 2730 c-16 -7 -17 -9 -3 -9 9 -1 20 4 23 9 7 11 7 11 -20 0z"/>
<path d="M2675 2730 c-3 -6 1 -7 9 -4 18 7 21 14 7 14 -6 0 -13 -4 -16 -10z"/>
<path d="M3885 2730 c3 -5 8 -10 11 -10 2 0 4 5 4 10 0 6 -5 10 -11 10 -5 0
-7 -4 -4 -10z"/>
<path d="M2446 2703 c-6 -14 -5 -15 5 -6 7 7 10 15 7 18 -3 3 -9 -2 -12 -12z"/>
<path d="M3860 2713 c0 -4 5 -15 10 -23 8 -13 10 -13 10 2 0 9 -4 20 -10 23
-5 3 -10 3 -10 -2z"/>
<path d="M4180 2714 c0 -6 7 -19 15 -30 8 -10 14 -14 14 -9 0 6 -6 19 -14 29
-8 11 -15 15 -15 10z"/>
<path d="M2460 2680 c0 -5 0 -13 1 -16 0 -4 -4 -10 -9 -13 -5 -3 0 -15 12 -26
12 -11 18 -16 14 -10 -12 15 -9 27 5 19 6 -4 5 1 -4 12 -9 10 -14 25 -12 32 3
6 2 12 -1 12 -3 0 -6 -4 -6 -10z"/>
<path d="M4169 2680 c-1 -5 -1 -17 -1 -25 0 -32 2 -36 16 -23 12 11 12 14 0
21 -7 4 -11 14 -8 22 4 8 3 15 0 15 -3 0 -7 -4 -7 -10z"/>
<path d="M2527 2647 c2 -4 -1 -16 -9 -25 -12 -15 -11 -16 5 -3 9 8 21 11 24 7
4 -4 1 -11 -7 -16 -8 -6 -10 -10 -4 -10 7 0 20 12 30 28 17 26 17 27 -1 12
-17 -13 -18 -13 -13 0 4 11 0 16 -12 16 -10 0 -16 -4 -13 -9z"/>
<path d="M4095 2640 c3 -5 8 -10 11 -10 2 0 4 5 4 10 0 6 -5 10 -11 10 -5 0
-7 -4 -4 -10z"/>
<path d="M3906 2575 c8 -37 14 -45 14 -19 0 10 -5 26 -10 34 -8 11 -9 7 -4
-15z"/>
<path d="M4099 2563 c-13 -16 -12 -17 4 -4 9 7 17 15 17 17 0 8 -8 3 -21 -13z"/>
<path d="M4050 2560 c0 -5 5 -10 10 -10 6 0 10 5 10 10 0 6 -4 10 -10 10 -5 0
-10 -4 -10 -10z"/>
<path d="M4040 2530 c0 -5 5 -10 11 -10 5 0 7 5 4 10 -3 6 -8 10 -11 10 -2 0
-4 -4 -4 -10z"/>
<path d="M3920 2515 c0 -8 4 -15 10 -15 5 0 7 7 4 15 -4 8 -8 15 -10 15 -2 0
-4 -7 -4 -15z"/>
<path d="M3978 2494 c-16 -8 -28 -17 -28 -19 0 -10 16 -4 40 15 30 23 25 25
-12 4z"/>
<path d="M3995 2479 c-48 -37 -51 -39 -39 -39 5 0 27 16 49 35 49 42 44 44
-10 4z"/>
<path d="M3932 2440 c0 -14 2 -19 5 -12 2 6 2 18 0 25 -3 6 -5 1 -5 -13z"/>
<path d="M1200 1696 l0 -206 35 0 35 0 0 60 0 60 84 0 c70 0 88 4 117 23 95
63 87 191 -16 244 -19 10 -69 18 -142 21 l-113 5 0 -207z m230 124 c31 -17 42
-67 24 -106 -19 -41 -41 -48 -136 -45 l-48 1 0 78 c0 43 3 82 8 86 9 10 129
-1 152 -14z"/>
<path d="M1620 1696 l0 -206 35 0 34 0 3 58 3 57 52 3 c50 3 52 2 85 -41 18
-25 38 -52 43 -62 7 -12 21 -16 48 -13 l37 3 -40 60 c-22 33 -40 63 -40 67 0
4 9 10 21 13 55 18 77 130 39 193 -29 48 -77 64 -207 70 l-113 5 0 -207z m236
119 c44 -29 44 -102 0 -130 -14 -10 -50 -16 -92 -18 l-69 -2 -3 82 c-3 78 -2
82 20 85 44 7 121 -2 144 -17z"/>
<path d="M2050 1695 l0 -205 156 0 155 0 -3 28 -3 27 -117 3 -118 3 0 54 0 55
100 0 100 0 0 30 0 29 -97 3 -98 3 0 55 0 55 113 3 112 3 0 29 0 30 -150 0
-150 0 0 -205z"/>
<path d="M2535 1876 c-58 -27 -78 -47 -100 -99 -40 -96 -6 -209 80 -262 43
-27 57 -30 124 -30 59 0 85 5 119 23 l42 22 0 80 0 80 -35 0 -35 0 0 -59 c0
-66 -7 -76 -62 -86 -83 -16 -168 48 -175 132 -6 66 19 111 77 141 54 28 117
25 160 -6 l28 -21 21 23 c20 22 21 23 3 39 -56 51 -166 61 -247 23z"/>
<path d="M2907 1894 c-4 -4 -7 -97 -7 -206 l0 -198 38 0 37 0 -2 130 c-1 71 1
131 5 134 4 2 56 -57 116 -130 101 -124 111 -134 143 -134 l33 0 -2 203 -3
202 -34 0 -34 0 0 -137 c-1 -76 -3 -138 -6 -138 -3 1 -30 31 -59 68 -130 166
-168 207 -193 210 -14 2 -28 0 -32 -4z"/>
<path d="M3497 1868 c-8 -18 -49 -109 -91 -202 -42 -92 -76 -170 -76 -172 0
-2 16 -4 35 -4 33 0 37 4 55 45 l19 45 106 0 106 0 19 -45 c18 -41 22 -45 55
-45 44 0 49 -17 -58 220 l-84 185 -36 3 c-33 3 -38 0 -50 -30z m117 -205 c7
-22 6 -23 -69 -23 -63 0 -76 3 -72 14 3 8 20 50 38 93 l33 78 31 -70 c18 -39
35 -80 39 -92z"/>
<path d="M3830 1695 l0 -205 35 0 34 0 3 135 3 135 110 -135 c100 -124 112
-135 142 -135 l33 0 0 205 0 205 -35 0 -34 0 -3 -142 -3 -143 -110 135 c-122
150 -121 150 -152 150 l-23 0 0 -205z"/>
<path d="M4417 1890 c-16 -5 -44 -20 -63 -35 -100 -76 -101 -254 -2 -328 83
-61 206 -62 275 -2 l28 24 -22 22 -21 22 -26 -21 c-41 -32 -97 -37 -150 -13
-113 50 -117 203 -6 263 43 24 110 19 149 -9 24 -18 29 -19 49 -5 33 22 27 36
-27 65 -51 28 -124 35 -184 17z"/>
<path d="M4670 1896 c0 -3 36 -64 80 -135 80 -131 80 -131 80 -201 l0 -70 35
0 35 0 0 68 c0 67 1 69 76 192 42 68 78 129 80 135 3 6 -9 12 -28 13 -32 2
-35 -2 -93 -98 -33 -55 -62 -100 -65 -100 -3 0 -32 45 -65 100 -59 98 -61 100
-97 100 -21 0 -38 -2 -38 -4z"/>
<path d="M1821 1254 c0 -11 3 -14 6 -6 3 7 2 16 -1 19 -3 4 -6 -2 -5 -13z"/>
<path d="M1981 1254 c0 -11 3 -14 6 -6 3 7 2 16 -1 19 -3 4 -6 -2 -5 -13z"/>
<path d="M2393 1215 c0 -33 2 -45 4 -27 2 18 2 45 0 60 -2 15 -4 0 -4 -33z"/>
<path d="M2696 1254 c-9 -24 -7 -31 5 -11 6 9 15 14 21 11 7 -4 8 -2 4 4 -10
17 -23 15 -30 -4z"/>
<path d="M2910 1267 c0 -3 19 -24 41 -48 l42 -44 -32 42 c-30 40 -51 60 -51
50z"/>
<path d="M3003 1215 c0 -33 2 -45 4 -27 2 18 2 45 0 60 -2 15 -4 0 -4 -33z"/>
<path d="M3211 1254 c0 -11 3 -14 6 -6 3 7 2 16 -1 19 -3 4 -6 -2 -5 -13z"/>
<path d="M3301 1254 c0 -11 3 -14 6 -6 3 7 2 16 -1 19 -3 4 -6 -2 -5 -13z"/>
<path d="M4353 1215 c0 -33 2 -48 4 -33 4 23 10 27 41 31 l37 4 -37 1 c-32 2
-37 6 -41 30 -2 15 -4 0 -4 -33z"/>
<path d="M4443 1215 c0 -33 2 -45 4 -27 2 18 2 45 0 60 -2 15 -4 0 -4 -33z"/>
<path d="M2135 1249 c-4 -6 -5 -12 -2 -15 2 -3 7 2 10 11 7 17 1 20 -8 4z"/>
<path d="M4163 1210 c0 -30 2 -43 4 -27 2 15 2 39 0 55 -2 15 -4 2 -4 -28z"/>
<path d="M2513 1205 c0 -27 2 -38 4 -22 2 15 2 37 0 50 -2 12 -4 0 -4 -28z"/>
<path d="M3710 1229 c-6 -11 -10 -25 -8 -30 2 -5 8 4 15 21 13 34 9 40 -7 9z"/>
<path d="M3750 1245 c0 -5 5 -17 10 -25 5 -8 10 -10 10 -5 0 6 -5 17 -10 25
-5 8 -10 11 -10 5z"/>
<path d="M1876 1214 c-4 -14 -5 -28 -3 -31 3 -2 8 8 11 23 4 14 5 28 3 31 -3
2 -8 -8 -11 -23z"/>
<path d="M2730 1231 c0 -6 4 -13 10 -16 6 -3 7 1 4 9 -7 18 -14 21 -14 7z"/>
<path d="M2913 1200 c0 -25 2 -35 4 -22 2 12 2 32 0 45 -2 12 -4 2 -4 -23z"/>
<path d="M2241 1214 c0 -11 3 -14 6 -6 3 7 2 16 -1 19 -3 4 -6 -2 -5 -13z"/>
<path d="M2426 1217 c3 -10 9 -15 12 -12 3 3 0 11 -7 18 -10 9 -11 8 -5 -6z"/>
<path d="M2465 1204 c-9 -14 -15 -27 -13 -30 2 -2 12 10 22 26 21 37 15 40 -9
4z"/>
<path d="M3265 1220 l-40 -7 37 -2 c20 0 40 4 43 9 3 6 5 9 3 9 -2 -1 -21 -5
-43 -9z"/>
<path d="M3930 1201 c0 -17 4 -32 8 -35 4 -2 6 11 4 30 -5 42 -12 45 -12 5z"/>
<path d="M2120 1214 c0 -6 7 -19 16 -30 14 -18 14 -18 3 6 -14 31 -19 36 -19
24z"/>
<path d="M3503 1213 c9 -2 23 -2 30 0 6 3 -1 5 -18 5 -16 0 -22 -2 -12 -5z"/>
<path d="M1953 1184 c-6 -13 -7 -24 -3 -24 9 0 25 39 18 45 -2 2 -8 -7 -15
-21z"/>
<path d="M3212 1185 c0 -16 2 -22 5 -12 2 9 2 23 0 30 -3 6 -5 -1 -5 -18z"/>
<path d="M3303 1185 c-3 -9 -3 -18 -1 -21 3 -3 8 4 11 16 6 23 -1 27 -10 5z"/>
<path d="M3978 1163 c7 -3 16 -2 19 1 4 3 -2 6 -13 5 -11 0 -14 -3 -6 -6z"/>
</g>
</svg>
